PathFileType	4	(X/Y/Z)	C:\Users\ebm\Documents\Erivelton\Erivelton2\wc8.trc
DataRate	CameraRate	NumFrames	NumMarkers	Units	OrigDataRate	OrigDataStartFrame	OrigNumFrames
150.00	150.00	      35	28	mm	150.00	287	      1146
Frame#	Time	IJ			PX			C7			T8			RAC			RAS			RPS			RAI			RPI			RLE			RME			RRS			RUS			R3M			R5M			LAC			LAS			LPS			LAI			LPI			LLE			LME			LRS			LUS			L3M			L5M			RW			LW			V_mid_elbow_r			V_mid_elbow_l			V_mid_wrist_r			V_mid_wrist_l			V_mid_trunk_low			V_mid_trunk_upp			
		X1	Y1	Z1	X2	Y2	Z2	X3	Y3	Z3	X4	Y4	Z4	X5	Y5	Z5	X6	Y6	Z6	X7	Y7	Z7	X8	Y8	Z8	X9	Y9	Z9	X10	Y10	Z10	X11	Y11	Z11	X12	Y12	Z12	X13	Y13	Z13	X14	Y14	Z14	X15	Y15	Z15	X16	Y16	Z16	X17	Y17	Z17	X18	Y18	Z18	X19	Y19	Z19	X20	Y20	Z20	X21	Y21	Z21	X22	Y22	Z22	X23	Y23	Z23	X24	Y24	Z24	X25	Y25	Z25	X26	Y26	Z26	X27	Y27	Z27	X28	Y28	Z28	

287	1.907																																																																																					
288	1.913																																																																																					
289	1.920																																																																																					
290	1.927																																																																																					
291	1.933																																																																																					
292	1.940																																																																																					
293	1.947																																																																																					
294	1.953																																																																																					
295	1.960													-1799.30579	1060.02942	105.64503																																																																						
296	1.967													-1790.84790	1059.96179	105.13833																																																																						
297	1.973													-1782.33984	1059.80408	104.66908																																																																						
298	1.980													-1773.71362	1059.45288	104.06809																																																																						
299	1.987							-1823.03967	1120.13696	-103.51150				-1765.04492	1059.15967	103.41998																																																																						
300	1.993							-1813.13501	1119.80444	-104.07035				-1756.41919	1058.79700	102.76664																																																																						
301	2.000							-1803.18811	1119.55664	-104.65555				-1747.70007	1058.43457	102.15634																																																																						
302	2.007							-1793.13416	1119.32629	-105.22467				-1739.00293	1057.99780	101.42384																																																																						
303	2.013							-1783.10522	1119.13037	-105.81446				-1730.29712	1057.62390	100.71346																																																																						
304	2.020							-1773.03235	1118.96497	-106.41174				-1721.68188	1057.48584	100.14766																																																																						
305	2.027							-1762.99927	1118.84973	-107.08215				-1713.01807	1057.24268	99.39431																																																																						
306	2.033							-1753.01794	1118.73975	-107.69044				-1704.26123	1056.98425	98.61040																																																																						
307	2.040							-1743.00098	1118.67004	-108.37581				-1695.57227	1056.92822	97.92673																																																																						
308	2.047							-1733.05676	1118.61938	-109.04946				-1686.77576	1056.82483	97.13206																																																																						
309	2.053							-1723.21460	1118.60828	-109.77825				-1678.01257	1056.82776	96.31532																																																																						
310	2.060							-1713.34448	1118.60400	-110.52320				-1669.27209	1056.93616	95.63312																																																																						
311	2.067							-1703.51587	1118.56482	-111.22310				-1660.44946	1057.02124	94.81910																																																																						
312	2.073							-1693.64331	1118.53125	-111.97210				-1651.59741	1057.17139	94.05419																																																																						
313	2.080							-1683.87097	1118.52954	-112.71231				-1642.72437	1057.30835	93.37411																																																																						
314	2.087							-1674.07007	1118.48120	-113.43239				-1633.78003	1057.47888	92.60370																																																																						
315	2.093							-1664.29517	1118.45349	-114.17297				-1624.85571	1057.70776	91.93779																																																																						
316	2.100							-1654.54504	1118.37891	-114.84523				-1615.78589	1057.85510	91.27197																																																																						
317	2.107							-1644.81897	1118.27783	-115.54844				-1606.66089	1058.04053	90.50494																																																																						
318	2.113							-1635.18225	1118.25500	-116.22863				-1597.51233	1058.18921	89.87359																																																																						
319	2.120							-1625.51477	1118.08655	-116.87463				-1588.22070	1058.32251	89.19751																																																																						
320	2.127							-1615.94250	1117.93286	-117.50849				-1578.77161	1058.26831	88.44194				-1719.95862	989.68475	173.69258																																																																
321	2.133							-1606.37549	1117.70581	-118.13586				-1569.29346	1058.18152	87.80519				-1711.40735	989.31317	171.77150																																																																
